<svg xmlns="http://www.w3.org/2000/svg" xmlns:xlink="http://www.w3.org/1999/xlink" width="24" height="24"><rect id="backgroundrect" width="100%" height="100%" x="0" y="0" fill="none" stroke="none"/>

<g class="currentLayer" style=""><title>Layer 1</title>
<rect x="0.3265306055545807" y="0.2448979616165161" width="24" height="24" style="fill:rgb(91.764706%,91.764706%,91.764706%);fill-opacity:1;stroke:none;" id="svg_1" class="selected"/>
<path style=" stroke:none;fill-rule:nonzero;fill:rgb(32.941177%,32.549021%,32.549021%);fill-opacity:1;" d="M11.306125923233033,5.306117961616516 C8.630895923233032,5.306117961616516 6.448975923233032,7.4880379616165165 6.448975923233032,10.163267961616516 C6.448975923233032,12.838487961616517 8.630895923233032,15.020407961616517 11.306125923233033,15.020407961616517 C12.517695923233033,15.020407961616517 13.626275923233033,14.567757961616516 14.480065923233033,13.827807961616516 L14.775505923233032,14.123247961616515 L14.775505923233032,15.020407961616517 L17.306115923233033,17.306117961616515 L18.448975923233032,16.081627961616515 L16.163265923233034,13.632657961616516 L15.266105923233033,13.632657961616516 L14.970665923233032,13.337217961616517 C15.710615923233032,12.483417961616516 16.163265923233034,11.374837961616516 16.163265923233034,10.163267961616516 C16.163265923233034,7.4880379616165165 13.981345923233032,5.306117961616516 11.306125923233033,5.306117961616516 zM11.306125923233033,6.693877961616516 C13.230545923233032,6.693877961616516 14.775505923233032,8.238837961616516 14.775505923233032,10.163267961616516 C14.775505923233032,12.087687961616517 13.230545923233032,13.632657961616516 11.306125923233033,13.632657961616516 C9.381695923233032,13.632657961616516 7.836735923233032,12.087687961616517 7.836735923233032,10.163267961616516 C7.836735923233032,8.238837961616516 9.381695923233032,6.693877961616516 11.306125923233033,6.693877961616516 zM11.306125923233033,6.693877961616516 " id="svg_2" class="" transform="rotate(5.740629196166992 12.448976516723622,11.306118011474606) "/>
</g></svg>